<svg width="364" height="366" viewBox="0 0 364 366" fill="none" xmlns="http://www.w3.org/2000/svg">
<rect width="364" height="366" fill="white"/>
<path d="M0 0H364V366H0V0Z" fill="#4CAF50"/>
<path d="M148.299 269.485V277H143.904V255.672H152.225C153.826 255.672 155.232 255.965 156.443 256.551C157.664 257.137 158.602 257.972 159.256 259.056C159.91 260.13 160.237 261.355 160.237 262.732C160.237 264.822 159.52 266.473 158.084 267.684C156.658 268.885 154.681 269.485 152.151 269.485H148.299ZM148.299 265.926H152.225C153.387 265.926 154.271 265.652 154.876 265.105C155.491 264.559 155.799 263.777 155.799 262.762C155.799 261.717 155.491 260.872 154.876 260.228C154.261 259.583 153.411 259.251 152.327 259.231H148.299V265.926Z" fill="white"/>
<path d="M167.664 273.47H176.995V277H163.27V255.672H167.664V273.47Z" fill="white"/>
<path d="M191.863 272.605H184.158L182.693 277H178.021L185.96 255.672H190.032L198.016 277H193.343L191.863 272.605ZM185.345 269.046H190.677L187.996 261.062L185.345 269.046Z" fill="white"/>
<path d="M217.352 277H212.957L204.402 262.967V277H200.008V255.672H204.402L212.972 269.734V255.672H217.352V277Z" fill="white"/>
<path d="M221.131 274.92C221.131 274.246 221.355 273.699 221.805 273.279C222.264 272.859 222.835 272.649 223.519 272.649C224.212 272.649 224.783 272.859 225.232 273.279C225.691 273.699 225.921 274.246 225.921 274.92C225.921 275.584 225.696 276.126 225.247 276.546C224.798 276.956 224.222 277.161 223.519 277.161C222.825 277.161 222.254 276.956 221.805 276.546C221.355 276.126 221.131 275.584 221.131 274.92Z" fill="white"/>
<path d="M239 173C239 205.07 213.219 231 181.5 231C149.781 231 124 205.07 124 173C124 140.93 149.781 115 181.5 115C213.219 115 239 140.93 239 173Z" stroke="white" stroke-width="10"/>
<path d="M164.405 125.938L157.55 130.352L146 112.413L152.855 108L164.405 125.938Z" fill="#4CAF50"/>
<path d="M200.872 104.606L208.624 107.76L200.372 128.046L192.62 124.893L200.872 104.606Z" fill="#4CAF50"/>
<path d="M137.688 148.269L135.674 156.17L115 150.9L117.014 143L137.688 148.269Z" fill="#4CAF50"/>
<path d="M134.014 186L137.712 193.266L118.698 202.943L115 195.677L134.014 186Z" fill="#4CAF50"/>
<path d="M213.272 232.203L206.019 235.925L196.28 216.943L203.533 213.221L213.272 232.203Z" fill="#4CAF50"/>
<path d="M250 188.427L247.986 196.327L227.312 191.058L229.326 183.158L250 188.427Z" fill="#4CAF50"/>
<path d="M158.307 238L150.7 235.068L158.373 215.16L165.981 218.093L158.307 238Z" fill="#4CAF50"/>
<path d="M243.973 133.7L247.967 140.807L229.366 151.257L225.373 144.15L243.973 133.7Z" fill="#4CAF50"/>
<path d="M184.694 189.353C185.482 187.411 185.46 185.496 184.627 183.609C183.815 181.73 182.012 179.598 179.218 177.21C175.277 174.013 172.717 170.897 171.539 167.862C170.39 164.814 170.505 161.59 171.884 158.191C173.289 154.728 175.443 152.295 178.349 150.891C181.275 149.496 184.587 149.303 188.285 150.311L191.098 143.374L195.818 145.288L192.991 152.257C196.342 154.181 198.493 156.788 199.447 160.076C200.421 163.372 200.03 167.185 198.274 171.514L192.446 169.15C193.654 166.173 193.906 163.521 193.202 161.194C192.498 158.868 190.943 157.217 188.535 156.24C186.023 155.221 183.836 155.096 181.974 155.866C180.122 156.614 178.724 158.15 177.782 160.472C176.908 162.626 176.907 164.63 177.778 166.483C178.679 168.324 180.52 170.423 183.302 172.781C186.113 175.126 188.159 177.296 189.44 179.291C190.75 181.273 191.489 183.27 191.657 185.28C191.847 187.3 191.487 189.428 190.579 191.667C189.132 195.235 186.89 197.67 183.854 198.971C180.839 200.281 177.319 200.353 173.292 199.187L170.838 205.237L166.15 203.335L168.604 197.286C164.822 195.334 162.304 192.69 161.051 189.353C159.828 186.005 160.064 182.24 161.76 178.059L167.619 180.436C166.429 183.371 166.283 185.943 167.182 188.152C168.081 190.361 169.945 192.039 172.775 193.187C175.541 194.308 177.986 194.526 180.109 193.838C182.232 193.15 183.761 191.655 184.694 189.353Z" fill="white"/>
</svg>
